<svg width="32" height="32" viewBox="0 0 32 32" fill="none" xmlns="http://www.w3.org/2000/svg">
<rect width="32" height="32" rx="6" fill="#741FFF"/>
<path d="M22.6348 23.875C22.6348 23.9583 22.5514 24 22.3848 24C22.2528 24 22.0584 23.9896 21.8014 23.9688C21.5514 23.9479 21.3605 23.9375 21.2285 23.9375C21.0966 23.9375 20.8987 23.9479 20.6348 23.9688C20.3709 23.9896 20.173 24 20.041 24C19.8466 24 19.5966 23.4757 19.291 22.4271C18.9924 21.3715 18.6868 20.8368 18.3743 20.8229C18.1174 20.809 17.4473 20.8021 16.3639 20.8021H14.7181C13.5723 20.8021 12.9195 20.809 12.7598 20.8229C12.5098 20.8438 12.2424 21.3785 11.9577 22.4271C11.6799 23.4757 11.4646 24 11.3118 24H8.9681C8.82921 24 8.75977 23.9514 8.75977 23.8542C8.75977 23.7847 8.80838 23.6285 8.9056 23.3854L11.4577 16.4062C11.673 15.8438 12.3257 14.2222 13.416 11.5417C13.6105 11.0972 13.8743 10.4271 14.2077 9.53125C14.291 9.26736 14.3813 9.13542 14.4785 9.13542C14.6105 9.13542 14.8049 9.15278 15.0618 9.1875C15.3188 9.22222 15.5132 9.23958 15.6452 9.23958C15.7702 9.23958 15.9577 9.22222 16.2077 9.1875C16.4646 9.14583 16.6521 9.125 16.7702 9.125C16.8327 9.125 16.9195 9.25347 17.0306 9.51042C17.1973 9.89931 18.0202 11.9931 19.4993 15.7917C21.5896 21.1319 22.6348 23.8264 22.6348 23.875ZM17.7806 18.125C17.7806 17.9236 17.4681 17.0208 16.8431 15.4167C16.2389 13.8611 15.8118 12.8403 15.5618 12.3542C14.1243 16.0208 13.4056 17.941 13.4056 18.1146C13.4056 18.3507 13.6695 18.4896 14.1973 18.5312C14.225 18.5382 14.5653 18.5417 15.2181 18.5417H16.291C17.2841 18.5417 17.7806 18.4028 17.7806 18.125Z" fill="#FFFFFD"/>
</svg>
