<svg width="133" height="32" viewBox="0 0 133 32" fill="none" xmlns="http://www.w3.org/2000/svg">
<rect width="32" height="32" rx="6" fill="#741FFF"/>
<path d="M22.6354 23.875C22.6354 23.9583 22.5521 24 22.3854 24C22.2535 24 22.059 23.9896 21.8021 23.9688C21.5521 23.9479 21.3611 23.9375 21.2292 23.9375C21.0972 23.9375 20.8993 23.9479 20.6354 23.9688C20.3715 23.9896 20.1736 24 20.0417 24C19.8472 24 19.5972 23.4757 19.2917 22.4271C18.9931 21.3715 18.6875 20.8368 18.375 20.8229C18.1181 20.809 17.4479 20.8021 16.3646 20.8021H14.7187C13.5729 20.8021 12.9201 20.809 12.7604 20.8229C12.5104 20.8438 12.2431 21.3785 11.9583 22.4271C11.6806 23.4757 11.4653 24 11.3125 24H8.96875C8.82986 24 8.76041 23.9514 8.76041 23.8542C8.76041 23.7847 8.80903 23.6285 8.90625 23.3854L11.4583 16.4063C11.6736 15.8438 12.3264 14.2222 13.4167 11.5417C13.6111 11.0972 13.875 10.4271 14.2083 9.53125C14.2917 9.26736 14.3819 9.13542 14.4792 9.13542C14.6111 9.13542 14.8056 9.15278 15.0625 9.1875C15.3194 9.22222 15.5139 9.23958 15.6458 9.23958C15.7708 9.23958 15.9583 9.22222 16.2083 9.1875C16.4653 9.14583 16.6528 9.125 16.7708 9.125C16.8333 9.125 16.9201 9.25347 17.0312 9.51042C17.1979 9.89931 18.0208 11.9931 19.5 15.7917C21.5903 21.1319 22.6354 23.8264 22.6354 23.875ZM17.7812 18.125C17.7812 17.9236 17.4687 17.0208 16.8437 15.4167C16.2396 13.8611 15.8125 12.8403 15.5625 12.3542C14.125 16.0208 13.4062 17.941 13.4062 18.1146C13.4062 18.3507 13.6701 18.4896 14.1979 18.5313C14.2257 18.5382 14.566 18.5417 15.2187 18.5417H16.2917C17.2847 18.5417 17.7812 18.4028 17.7812 18.125Z" fill="#FFFFFD"/>
<path d="M42.642 22H40.392L44.4886 10.3636H47.0909L51.1932 22H48.9432L45.8352 12.75H45.7443L42.642 22ZM42.7159 17.4375H48.8523V19.1307H42.7159V17.4375ZM52.6349 22V13.2727H54.6293V14.7273H54.7202C54.8793 14.2235 55.152 13.8352 55.5384 13.5625C55.9285 13.286 56.3736 13.1477 56.8736 13.1477C56.9872 13.1477 57.1141 13.1534 57.2543 13.1648C57.3982 13.1723 57.5175 13.1856 57.6122 13.2045V15.0966C57.5251 15.0663 57.3868 15.0398 57.1974 15.017C57.0118 14.9905 56.8319 14.9773 56.6577 14.9773C56.2827 14.9773 55.9455 15.0587 55.6463 15.2216C55.3509 15.3807 55.1179 15.6023 54.9474 15.8864C54.777 16.1705 54.6918 16.4981 54.6918 16.8693V22H52.6349ZM62.4148 25.4545C61.6761 25.4545 61.0417 25.3542 60.5114 25.1534C59.9811 24.9564 59.5549 24.6913 59.233 24.358C58.911 24.0246 58.6875 23.6553 58.5625 23.25L60.4148 22.8011C60.4981 22.9716 60.6193 23.1402 60.7784 23.3068C60.9375 23.4773 61.1515 23.6174 61.4205 23.7273C61.6932 23.8409 62.036 23.8977 62.4489 23.8977C63.0322 23.8977 63.5152 23.7557 63.8977 23.4716C64.2803 23.1913 64.4716 22.7292 64.4716 22.0852V20.4318H64.3693C64.2633 20.6439 64.108 20.8617 63.9034 21.0852C63.7027 21.3087 63.4356 21.4962 63.1023 21.6477C62.7727 21.7992 62.358 21.875 61.858 21.875C61.1875 21.875 60.5795 21.7178 60.0341 21.4034C59.4924 21.0852 59.0606 20.6117 58.7386 19.983C58.4205 19.3504 58.2614 18.5587 58.2614 17.608C58.2614 16.6496 58.4205 15.8409 58.7386 15.1818C59.0606 14.5189 59.4943 14.017 60.0398 13.6761C60.5852 13.3314 61.1932 13.1591 61.8636 13.1591C62.375 13.1591 62.7955 13.2462 63.125 13.4205C63.4583 13.5909 63.7235 13.7973 63.9205 14.0398C64.1174 14.2784 64.267 14.5038 64.3693 14.7159H64.483V13.2727H66.5114V22.142C66.5114 22.8883 66.3333 23.5057 65.9773 23.9943C65.6212 24.483 65.1345 24.8485 64.517 25.0909C63.8996 25.3333 63.1989 25.4545 62.4148 25.4545ZM62.4318 20.2614C62.8674 20.2614 63.2386 20.1553 63.5455 19.9432C63.8523 19.7311 64.0852 19.4261 64.2443 19.0284C64.4034 18.6307 64.483 18.1534 64.483 17.5966C64.483 17.0473 64.4034 16.5663 64.2443 16.1534C64.089 15.7405 63.858 15.4205 63.5511 15.1932C63.2481 14.9621 62.875 14.8466 62.4318 14.8466C61.9735 14.8466 61.5909 14.9659 61.2841 15.2045C60.9773 15.4432 60.7462 15.7708 60.5909 16.1875C60.4356 16.6004 60.358 17.0701 60.358 17.5966C60.358 18.1307 60.4356 18.5985 60.5909 19C60.75 19.3977 60.983 19.7083 61.2898 19.9318C61.6004 20.1515 61.9811 20.2614 62.4318 20.2614ZM68.6193 22V13.2727H70.6761V22H68.6193ZM69.6534 12.0341C69.3277 12.0341 69.0473 11.9261 68.8125 11.7102C68.5777 11.4905 68.4602 11.2273 68.4602 10.9205C68.4602 10.6098 68.5777 10.3466 68.8125 10.1307C69.0473 9.91098 69.3277 9.80114 69.6534 9.80114C69.983 9.80114 70.2633 9.91098 70.4943 10.1307C70.7292 10.3466 70.8466 10.6098 70.8466 10.9205C70.8466 11.2273 70.7292 11.4905 70.4943 11.7102C70.2633 11.9261 69.983 12.0341 69.6534 12.0341ZM74.848 10.3636V22H72.7912V10.3636H74.848Z" fill="#29282B"/>
<path d="M84.7173 21.5V14.2273H87.4446C88.0033 14.2273 88.4721 14.3314 88.8509 14.5398C89.232 14.7481 89.5196 15.0346 89.7138 15.3991C89.9103 15.7614 90.0085 16.1733 90.0085 16.6349C90.0085 17.1013 89.9103 17.5156 89.7138 17.8778C89.5173 18.2401 89.2273 18.5253 88.8438 18.7337C88.4602 18.9396 87.9879 19.0426 87.4268 19.0426H85.6193V17.9595H87.2493C87.576 17.9595 87.8435 17.9027 88.0518 17.7891C88.2602 17.6754 88.4141 17.5192 88.5135 17.3203C88.6153 17.1214 88.6662 16.893 88.6662 16.6349C88.6662 16.3769 88.6153 16.1496 88.5135 15.9531C88.4141 15.7566 88.259 15.6039 88.0483 15.495C87.84 15.3838 87.5713 15.3281 87.2422 15.3281H86.0348V21.5H84.7173ZM91.6529 21.5V14.2273H94.3801C94.9389 14.2273 95.4076 14.3243 95.7864 14.5185C96.1676 14.7126 96.4552 14.9848 96.6493 15.3352C96.8458 15.6832 96.9441 16.0893 96.9441 16.5533C96.9441 17.0196 96.8446 17.4245 96.6458 17.7678C96.4493 18.1087 96.1593 18.3726 95.7757 18.5597C95.3922 18.7443 94.9211 18.8366 94.3624 18.8366H92.4199V17.7429H94.1848C94.5115 17.7429 94.7791 17.6979 94.9874 17.608C95.1957 17.5156 95.3496 17.3819 95.449 17.2067C95.5508 17.0291 95.6017 16.8113 95.6017 16.5533C95.6017 16.2952 95.5508 16.075 95.449 15.8928C95.3472 15.7081 95.1922 15.5684 94.9838 15.4737C94.7755 15.3767 94.5068 15.3281 94.1777 15.3281H92.9703V21.5H91.6529ZM95.41 18.2045L97.2104 21.5H95.7402L93.9718 18.2045H95.41ZM98.6568 21.5V14.2273H103.387V15.3317H99.9743V17.3061H103.142V18.4105H99.9743V20.3956H103.415V21.5H98.6568ZM106.204 14.2273L108.097 19.9517H108.171L110.061 14.2273H111.509L108.945 21.5H107.319L104.759 14.2273H106.204ZM114.285 14.2273V21.5H112.967V14.2273H114.285ZM116.211 21.5V14.2273H120.942V15.3317H117.529V17.3061H120.697V18.4105H117.529V20.3956H120.97V21.5H116.211ZM124.316 21.5L122.264 14.2273H123.681L124.991 19.5717H125.058L126.458 14.2273H127.747L129.149 19.5753H129.213L130.524 14.2273H131.941L129.888 21.5H128.588L127.132 16.397H127.075L125.616 21.5H124.316Z" fill="#7C7A80"/>
</svg>
