<svg width="1440" height="469" viewBox="0 0 1440 469" fill="none" xmlns="http://www.w3.org/2000/svg">
<rect width="1440" height="469" fill="white"/>
<path d="M285.912 171H276.912L293.298 124.455H303.707L320.116 171H311.116L298.685 134H298.321L285.912 171ZM286.207 152.75H310.753V159.523H286.207V152.75ZM344.934 156.318V136.091H353.161V171H345.184V164.795H344.82C344.032 166.75 342.737 168.348 340.934 169.591C339.146 170.833 336.941 171.455 334.32 171.455C332.032 171.455 330.009 170.947 328.252 169.932C326.509 168.902 325.146 167.409 324.161 165.455C323.176 163.485 322.684 161.106 322.684 158.318V136.091H330.911V157.045C330.911 159.258 331.517 161.015 332.729 162.318C333.941 163.621 335.532 164.273 337.502 164.273C338.714 164.273 339.888 163.977 341.024 163.386C342.161 162.795 343.093 161.917 343.82 160.75C344.562 159.568 344.934 158.091 344.934 156.318ZM375.853 136.091V142.455H355.785V136.091H375.853ZM360.739 127.727H368.966V160.5C368.966 161.606 369.133 162.455 369.466 163.045C369.815 163.621 370.27 164.015 370.83 164.227C371.391 164.439 372.012 164.545 372.694 164.545C373.209 164.545 373.679 164.508 374.103 164.432C374.542 164.356 374.876 164.288 375.103 164.227L376.489 170.659C376.05 170.811 375.421 170.977 374.603 171.159C373.8 171.341 372.815 171.447 371.648 171.477C369.588 171.538 367.732 171.227 366.08 170.545C364.429 169.848 363.118 168.773 362.148 167.318C361.194 165.864 360.724 164.045 360.739 161.864V127.727ZM394.386 171.682C390.977 171.682 388.022 170.932 385.522 169.432C383.022 167.932 381.083 165.833 379.704 163.136C378.34 160.439 377.659 157.288 377.659 153.682C377.659 150.076 378.34 146.917 379.704 144.205C381.083 141.492 383.022 139.386 385.522 137.886C388.022 136.386 390.977 135.636 394.386 135.636C397.795 135.636 400.749 136.386 403.249 137.886C405.749 139.386 407.681 141.492 409.045 144.205C410.424 146.917 411.113 150.076 411.113 153.682C411.113 157.288 410.424 160.439 409.045 163.136C407.681 165.833 405.749 167.932 403.249 169.432C400.749 170.932 397.795 171.682 394.386 171.682ZM394.431 165.091C396.28 165.091 397.825 164.583 399.068 163.568C400.31 162.538 401.234 161.159 401.84 159.432C402.462 157.705 402.772 155.78 402.772 153.659C402.772 151.523 402.462 149.591 401.84 147.864C401.234 146.121 400.31 144.735 399.068 143.705C397.825 142.674 396.28 142.159 394.431 142.159C392.537 142.159 390.962 142.674 389.704 143.705C388.462 144.735 387.53 146.121 386.909 147.864C386.302 149.591 385.999 151.523 385.999 153.659C385.999 155.78 386.302 157.705 386.909 159.432C387.53 161.159 388.462 162.538 389.704 163.568C390.962 164.583 392.537 165.091 394.431 165.091ZM414.896 171V136.091H422.76V142.023H423.169C423.896 140.023 425.101 138.462 426.782 137.341C428.464 136.205 430.472 135.636 432.805 135.636C435.169 135.636 437.161 136.212 438.782 137.364C440.419 138.5 441.57 140.053 442.237 142.023H442.601C443.373 140.083 444.676 138.538 446.51 137.386C448.358 136.22 450.548 135.636 453.078 135.636C456.29 135.636 458.911 136.652 460.941 138.682C462.972 140.712 463.987 143.674 463.987 147.568V171H455.737V148.841C455.737 146.674 455.161 145.091 454.01 144.091C452.858 143.076 451.449 142.568 449.782 142.568C447.798 142.568 446.245 143.189 445.123 144.432C444.017 145.659 443.464 147.258 443.464 149.227V171H435.396V148.5C435.396 146.697 434.851 145.258 433.76 144.182C432.684 143.106 431.275 142.568 429.532 142.568C428.351 142.568 427.275 142.871 426.305 143.477C425.335 144.068 424.563 144.909 423.987 146C423.411 147.076 423.123 148.333 423.123 149.773V171H414.896ZM479.179 171.705C476.967 171.705 474.974 171.311 473.202 170.523C471.444 169.72 470.05 168.538 469.02 166.977C468.005 165.417 467.497 163.492 467.497 161.205C467.497 159.235 467.861 157.606 468.588 156.318C469.315 155.03 470.308 154 471.565 153.227C472.823 152.455 474.24 151.871 475.815 151.477C477.406 151.068 479.05 150.773 480.747 150.591C482.793 150.379 484.452 150.189 485.724 150.023C486.997 149.841 487.921 149.568 488.497 149.205C489.088 148.826 489.384 148.242 489.384 147.455V147.318C489.384 145.606 488.876 144.28 487.861 143.341C486.846 142.402 485.384 141.932 483.474 141.932C481.459 141.932 479.861 142.371 478.679 143.25C477.512 144.129 476.724 145.167 476.315 146.364L468.634 145.273C469.24 143.152 470.24 141.379 471.634 139.955C473.027 138.515 474.732 137.439 476.747 136.727C478.762 136 480.99 135.636 483.429 135.636C485.111 135.636 486.785 135.833 488.452 136.227C490.118 136.621 491.641 137.273 493.02 138.182C494.399 139.076 495.505 140.295 496.338 141.841C497.187 143.386 497.611 145.318 497.611 147.636V171H489.702V166.205H489.429C488.929 167.174 488.224 168.083 487.315 168.932C486.421 169.765 485.293 170.439 483.929 170.955C482.58 171.455 480.997 171.705 479.179 171.705ZM481.315 165.659C482.967 165.659 484.399 165.333 485.611 164.682C486.823 164.015 487.755 163.136 488.406 162.045C489.073 160.955 489.406 159.765 489.406 158.477V154.364C489.149 154.576 488.709 154.773 488.088 154.955C487.482 155.136 486.8 155.295 486.043 155.432C485.285 155.568 484.535 155.689 483.793 155.795C483.05 155.902 482.406 155.992 481.861 156.068C480.634 156.235 479.535 156.508 478.565 156.886C477.596 157.265 476.83 157.795 476.27 158.477C475.709 159.144 475.429 160.008 475.429 161.068C475.429 162.583 475.982 163.727 477.088 164.5C478.194 165.273 479.603 165.659 481.315 165.659ZM520.115 136.091V142.455H500.047V136.091H520.115ZM505.002 127.727H513.229V160.5C513.229 161.606 513.396 162.455 513.729 163.045C514.077 163.621 514.532 164.015 515.093 164.227C515.653 164.439 516.274 164.545 516.956 164.545C517.471 164.545 517.941 164.508 518.365 164.432C518.805 164.356 519.138 164.288 519.365 164.227L520.752 170.659C520.312 170.811 519.684 170.977 518.865 171.159C518.062 171.341 517.077 171.447 515.911 171.477C513.85 171.538 511.994 171.227 510.343 170.545C508.691 169.848 507.38 168.773 506.411 167.318C505.456 165.864 504.987 164.045 505.002 161.864V127.727ZM538.876 171.682C535.376 171.682 532.353 170.955 529.807 169.5C527.277 168.03 525.33 165.955 523.966 163.273C522.603 160.576 521.921 157.402 521.921 153.75C521.921 150.159 522.603 147.008 523.966 144.295C525.345 141.568 527.27 139.447 529.739 137.932C532.209 136.402 535.11 135.636 538.444 135.636C540.595 135.636 542.626 135.985 544.535 136.682C546.459 137.364 548.156 138.424 549.626 139.864C551.11 141.303 552.277 143.136 553.126 145.364C553.974 147.576 554.398 150.212 554.398 153.273V155.795H525.785V150.25H546.512C546.497 148.674 546.156 147.273 545.489 146.045C544.823 144.803 543.891 143.826 542.694 143.114C541.512 142.402 540.133 142.045 538.557 142.045C536.876 142.045 535.398 142.455 534.126 143.273C532.853 144.076 531.86 145.136 531.148 146.455C530.451 147.758 530.095 149.189 530.08 150.75V155.591C530.08 157.621 530.451 159.364 531.194 160.818C531.936 162.258 532.974 163.364 534.307 164.136C535.641 164.894 537.201 165.273 538.989 165.273C540.186 165.273 541.27 165.106 542.239 164.773C543.209 164.424 544.05 163.917 544.762 163.25C545.474 162.583 546.012 161.758 546.376 160.773L554.057 161.636C553.573 163.667 552.648 165.439 551.285 166.955C549.936 168.455 548.209 169.621 546.103 170.455C543.997 171.273 541.588 171.682 538.876 171.682ZM575.947 184.091C574.826 184.091 573.788 184 572.834 183.818C571.894 183.652 571.144 183.455 570.584 183.227L572.493 176.818C573.69 177.167 574.758 177.333 575.697 177.318C576.637 177.303 577.462 177.008 578.174 176.432C578.902 175.871 579.515 174.932 580.015 173.614L580.72 171.727L568.061 136.091H576.788L584.834 162.455H585.197L593.265 136.091H602.015L588.038 175.227C587.387 177.076 586.523 178.659 585.447 179.977C584.371 181.311 583.053 182.326 581.493 183.023C579.947 183.735 578.099 184.091 575.947 184.091ZM618.548 171.682C615.139 171.682 612.185 170.932 609.685 169.432C607.185 167.932 605.245 165.833 603.866 163.136C602.503 160.439 601.821 157.288 601.821 153.682C601.821 150.076 602.503 146.917 603.866 144.205C605.245 141.492 607.185 139.386 609.685 137.886C612.185 136.386 615.139 135.636 618.548 135.636C621.957 135.636 624.912 136.386 627.412 137.886C629.912 139.386 631.844 141.492 633.207 144.205C634.586 146.917 635.276 150.076 635.276 153.682C635.276 157.288 634.586 160.439 633.207 163.136C631.844 165.833 629.912 167.932 627.412 169.432C624.912 170.932 621.957 171.682 618.548 171.682ZM618.594 165.091C620.442 165.091 621.988 164.583 623.23 163.568C624.473 162.538 625.397 161.159 626.003 159.432C626.624 157.705 626.935 155.78 626.935 153.659C626.935 151.523 626.624 149.591 626.003 147.864C625.397 146.121 624.473 144.735 623.23 143.705C621.988 142.674 620.442 142.159 618.594 142.159C616.7 142.159 615.124 142.674 613.866 143.705C612.624 144.735 611.692 146.121 611.071 147.864C610.465 149.591 610.162 151.523 610.162 153.659C610.162 155.78 610.465 157.705 611.071 159.432C611.692 161.159 612.624 162.538 613.866 163.568C615.124 164.583 616.7 165.091 618.594 165.091ZM661.309 156.318V136.091H669.536V171H661.559V164.795H661.195C660.407 166.75 659.112 168.348 657.309 169.591C655.521 170.833 653.316 171.455 650.695 171.455C648.407 171.455 646.384 170.947 644.627 169.932C642.884 168.902 641.521 167.409 640.536 165.455C639.551 163.485 639.059 161.106 639.059 158.318V136.091H647.286V157.045C647.286 159.258 647.892 161.015 649.104 162.318C650.316 163.621 651.907 164.273 653.877 164.273C655.089 164.273 656.263 163.977 657.399 163.386C658.536 162.795 659.468 161.917 660.195 160.75C660.937 159.568 661.309 158.091 661.309 156.318ZM674.796 171V136.091H682.773V141.909H683.137C683.773 139.894 684.864 138.341 686.41 137.25C687.97 136.144 689.751 135.591 691.751 135.591C692.205 135.591 692.713 135.614 693.273 135.659C693.849 135.689 694.326 135.742 694.705 135.818V143.386C694.357 143.265 693.804 143.159 693.046 143.068C692.304 142.962 691.584 142.909 690.887 142.909C689.387 142.909 688.038 143.235 686.841 143.886C685.66 144.523 684.728 145.409 684.046 146.545C683.364 147.682 683.023 148.992 683.023 150.477V171H674.796ZM724.873 171.682C721.388 171.682 718.396 170.917 715.896 169.386C713.411 167.856 711.495 165.742 710.146 163.045C708.813 160.333 708.146 157.212 708.146 153.682C708.146 150.136 708.828 147.008 710.191 144.295C711.555 141.568 713.479 139.447 715.964 137.932C718.464 136.402 721.419 135.636 724.828 135.636C727.661 135.636 730.169 136.159 732.351 137.205C734.548 138.235 736.298 139.697 737.601 141.591C738.904 143.47 739.646 145.667 739.828 148.182H731.964C731.646 146.5 730.888 145.098 729.691 143.977C728.51 142.841 726.926 142.273 724.941 142.273C723.26 142.273 721.782 142.727 720.51 143.636C719.237 144.53 718.245 145.818 717.532 147.5C716.835 149.182 716.487 151.197 716.487 153.545C716.487 155.924 716.835 157.97 717.532 159.682C718.229 161.379 719.207 162.689 720.464 163.614C721.737 164.523 723.229 164.977 724.941 164.977C726.154 164.977 727.237 164.75 728.191 164.295C729.161 163.826 729.972 163.152 730.623 162.273C731.275 161.394 731.722 160.326 731.964 159.068H739.828C739.631 161.538 738.904 163.727 737.646 165.636C736.388 167.53 734.676 169.015 732.51 170.091C730.343 171.152 727.798 171.682 724.873 171.682ZM758.611 171.682C755.202 171.682 752.247 170.932 749.747 169.432C747.247 167.932 745.308 165.833 743.929 163.136C742.565 160.439 741.884 157.288 741.884 153.682C741.884 150.076 742.565 146.917 743.929 144.205C745.308 141.492 747.247 139.386 749.747 137.886C752.247 136.386 755.202 135.636 758.611 135.636C762.02 135.636 764.974 136.386 767.474 137.886C769.974 139.386 771.906 141.492 773.27 144.205C774.649 146.917 775.338 150.076 775.338 153.682C775.338 157.288 774.649 160.439 773.27 163.136C771.906 165.833 769.974 167.932 767.474 169.432C764.974 170.932 762.02 171.682 758.611 171.682ZM758.656 165.091C760.505 165.091 762.05 164.583 763.293 163.568C764.535 162.538 765.459 161.159 766.065 159.432C766.687 157.705 766.997 155.78 766.997 153.659C766.997 151.523 766.687 149.591 766.065 147.864C765.459 146.121 764.535 144.735 763.293 143.705C762.05 142.674 760.505 142.159 758.656 142.159C756.762 142.159 755.187 142.674 753.929 143.705C752.687 144.735 751.755 146.121 751.134 147.864C750.527 149.591 750.224 151.523 750.224 153.659C750.224 155.78 750.527 157.705 751.134 159.432C751.755 161.159 752.687 162.538 753.929 163.568C755.187 164.583 756.762 165.091 758.656 165.091ZM787.348 150.545V171H779.121V136.091H786.985V142.023H787.394C788.197 140.068 789.477 138.515 791.235 137.364C793.007 136.212 795.197 135.636 797.803 135.636C800.212 135.636 802.31 136.152 804.098 137.182C805.901 138.212 807.295 139.705 808.28 141.659C809.28 143.614 809.773 145.985 809.757 148.773V171H801.53V150.045C801.53 147.712 800.924 145.886 799.712 144.568C798.515 143.25 796.856 142.591 794.735 142.591C793.295 142.591 792.015 142.909 790.894 143.545C789.788 144.167 788.916 145.068 788.28 146.25C787.659 147.432 787.348 148.864 787.348 150.545ZM832.353 136.091V142.455H812.285V136.091H832.353ZM817.239 127.727H825.466V160.5C825.466 161.606 825.633 162.455 825.966 163.045C826.315 163.621 826.769 164.015 827.33 164.227C827.891 164.439 828.512 164.545 829.194 164.545C829.709 164.545 830.179 164.508 830.603 164.432C831.042 164.356 831.376 164.288 831.603 164.227L832.989 170.659C832.55 170.811 831.921 170.977 831.103 171.159C830.3 171.341 829.315 171.447 828.148 171.477C826.088 171.538 824.232 171.227 822.58 170.545C820.929 169.848 819.618 168.773 818.648 167.318C817.694 165.864 817.224 164.045 817.239 161.864V127.727ZM851.113 171.682C847.613 171.682 844.59 170.955 842.045 169.5C839.515 168.03 837.568 165.955 836.204 163.273C834.84 160.576 834.159 157.402 834.159 153.75C834.159 150.159 834.84 147.008 836.204 144.295C837.583 141.568 839.507 139.447 841.977 137.932C844.446 136.402 847.348 135.636 850.681 135.636C852.833 135.636 854.863 135.985 856.772 136.682C858.696 137.364 860.393 138.424 861.863 139.864C863.348 141.303 864.515 143.136 865.363 145.364C866.212 147.576 866.636 150.212 866.636 153.273V155.795H838.022V150.25H858.749C858.734 148.674 858.393 147.273 857.727 146.045C857.06 144.803 856.128 143.826 854.931 143.114C853.749 142.402 852.371 142.045 850.795 142.045C849.113 142.045 847.636 142.455 846.363 143.273C845.09 144.076 844.098 145.136 843.386 146.455C842.689 147.758 842.333 149.189 842.318 150.75V155.591C842.318 157.621 842.689 159.364 843.431 160.818C844.174 162.258 845.212 163.364 846.545 164.136C847.878 164.894 849.439 165.273 851.227 165.273C852.424 165.273 853.507 165.106 854.477 164.773C855.446 164.424 856.287 163.917 856.999 163.25C857.712 162.583 858.249 161.758 858.613 160.773L866.295 161.636C865.81 163.667 864.886 165.439 863.522 166.955C862.174 168.455 860.446 169.621 858.34 170.455C856.234 171.273 853.825 171.682 851.113 171.682ZM878.623 150.545V171H870.396V136.091H878.26V142.023H878.669C879.472 140.068 880.752 138.515 882.51 137.364C884.282 136.212 886.472 135.636 889.078 135.636C891.487 135.636 893.585 136.152 895.373 137.182C897.176 138.212 898.57 139.705 899.555 141.659C900.555 143.614 901.048 145.985 901.032 148.773V171H892.805V150.045C892.805 147.712 892.199 145.886 890.987 144.568C889.79 143.25 888.131 142.591 886.01 142.591C884.57 142.591 883.29 142.909 882.169 143.545C881.063 144.167 880.191 145.068 879.555 146.25C878.934 147.432 878.623 148.864 878.623 150.545ZM923.628 136.091V142.455H903.56V136.091H923.628ZM908.514 127.727H916.741V160.5C916.741 161.606 916.908 162.455 917.241 163.045C917.59 163.621 918.045 164.015 918.605 164.227C919.166 164.439 919.787 164.545 920.469 164.545C920.984 164.545 921.454 164.508 921.878 164.432C922.317 164.356 922.651 164.288 922.878 164.227L924.264 170.659C923.825 170.811 923.196 170.977 922.378 171.159C921.575 171.341 920.59 171.447 919.423 171.477C917.363 171.538 915.507 171.227 913.855 170.545C912.204 169.848 910.893 168.773 909.923 167.318C908.969 165.864 908.499 164.045 908.514 161.864V127.727ZM955.211 171.682C951.726 171.682 948.733 170.917 946.233 169.386C943.749 167.856 941.832 165.742 940.483 163.045C939.15 160.333 938.483 157.212 938.483 153.682C938.483 150.136 939.165 147.008 940.529 144.295C941.893 141.568 943.817 139.447 946.302 137.932C948.802 136.402 951.756 135.636 955.165 135.636C957.999 135.636 960.506 136.159 962.688 137.205C964.885 138.235 966.635 139.697 967.938 141.591C969.241 143.47 969.983 145.667 970.165 148.182H962.302C961.983 146.5 961.226 145.098 960.029 143.977C958.847 142.841 957.264 142.273 955.279 142.273C953.597 142.273 952.12 142.727 950.847 143.636C949.574 144.53 948.582 145.818 947.87 147.5C947.173 149.182 946.824 151.197 946.824 153.545C946.824 155.924 947.173 157.97 947.87 159.682C948.567 161.379 949.544 162.689 950.802 163.614C952.074 164.523 953.567 164.977 955.279 164.977C956.491 164.977 957.574 164.75 958.529 164.295C959.499 163.826 960.309 163.152 960.961 162.273C961.612 161.394 962.059 160.326 962.302 159.068H970.165C969.968 161.538 969.241 163.727 967.983 165.636C966.726 167.53 965.014 169.015 962.847 170.091C960.68 171.152 958.135 171.682 955.211 171.682ZM973.721 171V136.091H981.698V141.909H982.062C982.698 139.894 983.789 138.341 985.335 137.25C986.895 136.144 988.676 135.591 990.676 135.591C991.13 135.591 991.638 135.614 992.198 135.659C992.774 135.689 993.251 135.742 993.63 135.818V143.386C993.282 143.265 992.729 143.159 991.971 143.068C991.229 142.962 990.509 142.909 989.812 142.909C988.312 142.909 986.963 143.235 985.767 143.886C984.585 144.523 983.653 145.409 982.971 146.545C982.289 147.682 981.948 148.992 981.948 150.477V171H973.721ZM1009.91 171.682C1006.41 171.682 1003.39 170.955 1000.84 169.5C998.315 168.03 996.368 165.955 995.004 163.273C993.64 160.576 992.959 157.402 992.959 153.75C992.959 150.159 993.64 147.008 995.004 144.295C996.383 141.568 998.307 139.447 1000.78 137.932C1003.25 136.402 1006.15 135.636 1009.48 135.636C1011.63 135.636 1013.66 135.985 1015.57 136.682C1017.5 137.364 1019.19 138.424 1020.66 139.864C1022.15 141.303 1023.31 143.136 1024.16 145.364C1025.01 147.576 1025.44 150.212 1025.44 153.273V155.795H996.822V150.25H1017.55C1017.53 148.674 1017.19 147.273 1016.53 146.045C1015.86 144.803 1014.93 143.826 1013.73 143.114C1012.55 142.402 1011.17 142.045 1009.59 142.045C1007.91 142.045 1006.44 142.455 1005.16 143.273C1003.89 144.076 1002.9 145.136 1002.19 146.455C1001.49 147.758 1001.13 149.189 1001.12 150.75V155.591C1001.12 157.621 1001.49 159.364 1002.23 160.818C1002.97 162.258 1004.01 163.364 1005.34 164.136C1006.68 164.894 1008.24 165.273 1010.03 165.273C1011.22 165.273 1012.31 165.106 1013.28 164.773C1014.25 164.424 1015.09 163.917 1015.8 163.25C1016.51 162.583 1017.05 161.758 1017.41 160.773L1025.09 161.636C1024.61 163.667 1023.69 165.439 1022.32 166.955C1020.97 168.455 1019.25 169.621 1017.14 170.455C1015.03 171.273 1012.63 171.682 1009.91 171.682ZM1039.24 171.705C1037.03 171.705 1035.04 171.311 1033.26 170.523C1031.51 169.72 1030.11 168.538 1029.08 166.977C1028.07 165.417 1027.56 163.492 1027.56 161.205C1027.56 159.235 1027.92 157.606 1028.65 156.318C1029.38 155.03 1030.37 154 1031.63 153.227C1032.89 152.455 1034.3 151.871 1035.88 151.477C1037.47 151.068 1039.11 150.773 1040.81 150.591C1042.86 150.379 1044.51 150.189 1045.79 150.023C1047.06 149.841 1047.98 149.568 1048.56 149.205C1049.15 148.826 1049.45 148.242 1049.45 147.455V147.318C1049.45 145.606 1048.94 144.28 1047.92 143.341C1046.91 142.402 1045.45 141.932 1043.54 141.932C1041.52 141.932 1039.92 142.371 1038.74 143.25C1037.57 144.129 1036.79 145.167 1036.38 146.364L1028.7 145.273C1029.3 143.152 1030.3 141.379 1031.7 139.955C1033.09 138.515 1034.79 137.439 1036.81 136.727C1038.82 136 1041.05 135.636 1043.49 135.636C1045.17 135.636 1046.85 135.833 1048.51 136.227C1050.18 136.621 1051.7 137.273 1053.08 138.182C1054.46 139.076 1055.57 140.295 1056.4 141.841C1057.25 143.386 1057.67 145.318 1057.67 147.636V171H1049.76V166.205H1049.49C1048.99 167.174 1048.29 168.083 1047.38 168.932C1046.48 169.765 1045.36 170.439 1043.99 170.955C1042.64 171.455 1041.06 171.705 1039.24 171.705ZM1041.38 165.659C1043.03 165.659 1044.46 165.333 1045.67 164.682C1046.89 164.015 1047.82 163.136 1048.47 162.045C1049.14 160.955 1049.47 159.765 1049.47 158.477V154.364C1049.21 154.576 1048.77 154.773 1048.15 154.955C1047.54 155.136 1046.86 155.295 1046.11 155.432C1045.35 155.568 1044.6 155.689 1043.86 155.795C1043.11 155.902 1042.47 155.992 1041.92 156.068C1040.7 156.235 1039.6 156.508 1038.63 156.886C1037.66 157.265 1036.89 157.795 1036.33 158.477C1035.77 159.144 1035.49 160.008 1035.49 161.068C1035.49 162.583 1036.04 163.727 1037.15 164.5C1038.26 165.273 1039.67 165.659 1041.38 165.659ZM1080.18 136.091V142.455H1060.11V136.091H1080.18ZM1065.06 127.727H1073.29V160.5C1073.29 161.606 1073.46 162.455 1073.79 163.045C1074.14 163.621 1074.59 164.015 1075.16 164.227C1075.72 164.439 1076.34 164.545 1077.02 164.545C1077.53 164.545 1078 164.508 1078.43 164.432C1078.87 164.356 1079.2 164.288 1079.43 164.227L1080.81 170.659C1080.37 170.811 1079.75 170.977 1078.93 171.159C1078.12 171.341 1077.14 171.447 1075.97 171.477C1073.91 171.538 1072.06 171.227 1070.41 170.545C1068.75 169.848 1067.44 168.773 1066.47 167.318C1065.52 165.864 1065.05 164.045 1065.06 161.864V127.727ZM1083.86 171V136.091H1092.09V171H1083.86ZM1087.99 131.136C1086.69 131.136 1085.57 130.705 1084.63 129.841C1083.69 128.962 1083.22 127.909 1083.22 126.682C1083.22 125.439 1083.69 124.386 1084.63 123.523C1085.57 122.644 1086.69 122.205 1087.99 122.205C1089.31 122.205 1090.43 122.644 1091.36 123.523C1092.3 124.386 1092.77 125.439 1092.77 126.682C1092.77 127.909 1092.3 128.962 1091.36 129.841C1090.43 130.705 1089.31 131.136 1087.99 131.136ZM1112.57 171.682C1109.16 171.682 1106.21 170.932 1103.71 169.432C1101.21 167.932 1099.27 165.833 1097.89 163.136C1096.53 160.439 1095.85 157.288 1095.85 153.682C1095.85 150.076 1096.53 146.917 1097.89 144.205C1099.27 141.492 1101.21 139.386 1103.71 137.886C1106.21 136.386 1109.16 135.636 1112.57 135.636C1115.98 135.636 1118.94 136.386 1121.44 137.886C1123.94 139.386 1125.87 141.492 1127.23 144.205C1128.61 146.917 1129.3 150.076 1129.3 153.682C1129.3 157.288 1128.61 160.439 1127.23 163.136C1125.87 165.833 1123.94 167.932 1121.44 169.432C1118.94 170.932 1115.98 171.682 1112.57 171.682ZM1112.62 165.091C1114.47 165.091 1116.01 164.583 1117.26 163.568C1118.5 162.538 1119.42 161.159 1120.03 159.432C1120.65 157.705 1120.96 155.78 1120.96 153.659C1120.96 151.523 1120.65 149.591 1120.03 147.864C1119.42 146.121 1118.5 144.735 1117.26 143.705C1116.01 142.674 1114.47 142.159 1112.62 142.159C1110.72 142.159 1109.15 142.674 1107.89 143.705C1106.65 144.735 1105.72 146.121 1105.1 147.864C1104.49 149.591 1104.19 151.523 1104.19 153.659C1104.19 155.78 1104.49 157.705 1105.1 159.432C1105.72 161.159 1106.65 162.538 1107.89 163.568C1109.15 164.583 1110.72 165.091 1112.62 165.091ZM1141.31 150.545V171H1133.08V136.091H1140.95V142.023H1141.36C1142.16 140.068 1143.44 138.515 1145.2 137.364C1146.97 136.212 1149.16 135.636 1151.77 135.636C1154.17 135.636 1156.27 136.152 1158.06 137.182C1159.86 138.212 1161.26 139.705 1162.24 141.659C1163.24 143.614 1163.74 145.985 1163.72 148.773V171H1155.49V150.045C1155.49 147.712 1154.89 145.886 1153.67 144.568C1152.48 143.25 1150.82 142.591 1148.7 142.591C1147.26 142.591 1145.98 142.909 1144.86 143.545C1143.75 144.167 1142.88 145.068 1142.24 146.25C1141.62 147.432 1141.31 148.864 1141.31 150.545ZM599.819 243L589.956 208.091H598.342L604.478 232.636H604.797L611.069 208.091H619.365L625.638 232.5H625.978L632.024 208.091H640.433L630.547 243H621.978L615.433 219.409H614.956L608.41 243H599.819ZM657.205 243.682C653.795 243.682 650.841 242.932 648.341 241.432C645.841 239.932 643.902 237.833 642.523 235.136C641.159 232.439 640.477 229.288 640.477 225.682C640.477 222.076 641.159 218.917 642.523 216.205C643.902 213.492 645.841 211.386 648.341 209.886C650.841 208.386 653.795 207.636 657.205 207.636C660.614 207.636 663.568 208.386 666.068 209.886C668.568 211.386 670.5 213.492 671.864 216.205C673.242 218.917 673.932 222.076 673.932 225.682C673.932 229.288 673.242 232.439 671.864 235.136C670.5 237.833 668.568 239.932 666.068 241.432C663.568 242.932 660.614 243.682 657.205 243.682ZM657.25 237.091C659.098 237.091 660.644 236.583 661.886 235.568C663.129 234.538 664.053 233.159 664.659 231.432C665.28 229.705 665.591 227.78 665.591 225.659C665.591 223.523 665.28 221.591 664.659 219.864C664.053 218.121 663.129 216.735 661.886 215.705C660.644 214.674 659.098 214.159 657.25 214.159C655.356 214.159 653.78 214.674 652.523 215.705C651.28 216.735 650.348 218.121 649.727 219.864C649.121 221.591 648.818 223.523 648.818 225.659C648.818 227.78 649.121 229.705 649.727 231.432C650.348 233.159 651.28 234.538 652.523 235.568C653.78 236.583 655.356 237.091 657.25 237.091ZM677.715 243V208.091H685.692V213.909H686.056C686.692 211.894 687.783 210.341 689.328 209.25C690.889 208.144 692.669 207.591 694.669 207.591C695.124 207.591 695.631 207.614 696.192 207.659C696.768 207.689 697.245 207.742 697.624 207.818V215.386C697.275 215.265 696.722 215.159 695.965 215.068C695.222 214.962 694.503 214.909 693.806 214.909C692.306 214.909 690.957 215.235 689.76 215.886C688.578 216.523 687.647 217.409 686.965 218.545C686.283 219.682 685.942 220.992 685.942 222.477V243H677.715ZM707.39 232.045L707.367 222.114H708.685L721.231 208.091H730.844L715.413 225.273H713.708L707.39 232.045ZM699.89 243V196.455H708.117V243H699.89ZM721.799 243L710.435 227.114L715.981 221.318L731.64 243H721.799ZM750.809 208.091V214.455H730.173V208.091H750.809ZM735.332 243V204.795C735.332 202.447 735.817 200.492 736.786 198.932C737.771 197.371 739.089 196.205 740.741 195.432C742.392 194.659 744.226 194.273 746.241 194.273C747.665 194.273 748.93 194.386 750.036 194.614C751.142 194.841 751.961 195.045 752.491 195.227L750.855 201.591C750.506 201.485 750.067 201.379 749.536 201.273C749.006 201.152 748.415 201.091 747.764 201.091C746.233 201.091 745.15 201.462 744.514 202.205C743.892 202.932 743.582 203.977 743.582 205.341V243H735.332ZM762.28 196.455V243H754.052V196.455H762.28ZM782.767 243.682C779.358 243.682 776.403 242.932 773.903 241.432C771.403 239.932 769.464 237.833 768.085 235.136C766.722 232.439 766.04 229.288 766.04 225.682C766.04 222.076 766.722 218.917 768.085 216.205C769.464 213.492 771.403 211.386 773.903 209.886C776.403 208.386 779.358 207.636 782.767 207.636C786.176 207.636 789.131 208.386 791.631 209.886C794.131 211.386 796.063 213.492 797.426 216.205C798.805 218.917 799.494 222.076 799.494 225.682C799.494 229.288 798.805 232.439 797.426 235.136C796.063 237.833 794.131 239.932 791.631 241.432C789.131 242.932 786.176 243.682 782.767 243.682ZM782.812 237.091C784.661 237.091 786.206 236.583 787.449 235.568C788.691 234.538 789.616 233.159 790.222 231.432C790.843 229.705 791.153 227.78 791.153 225.659C791.153 223.523 790.843 221.591 790.222 219.864C789.616 218.121 788.691 216.735 787.449 215.705C786.206 214.674 784.661 214.159 782.812 214.159C780.919 214.159 779.343 214.674 778.085 215.705C776.843 216.735 775.911 218.121 775.29 219.864C774.684 221.591 774.381 223.523 774.381 225.659C774.381 227.78 774.684 229.705 775.29 231.432C775.911 233.159 776.843 234.538 778.085 235.568C779.343 236.583 780.919 237.091 782.812 237.091ZM809.482 243L799.618 208.091H808.005L814.141 232.636H814.459L820.732 208.091H829.027L835.3 232.5H835.641L841.686 208.091H850.096L840.209 243H831.641L825.096 219.409H824.618L818.073 243H809.482Z" fill="url(#paint0_linear_2917_18445)"/>
<rect x="656" y="291" width="128" height="128" rx="6" fill="#741FFF"/>
<path d="M746.543 386.5C746.543 386.833 746.21 387 745.543 387C745.015 387 744.237 386.958 743.21 386.875C742.21 386.792 741.446 386.75 740.918 386.75C740.39 386.75 739.599 386.792 738.543 386.875C737.487 386.958 736.696 387 736.168 387C735.39 387 734.39 384.903 733.168 380.708C731.974 376.486 730.751 374.347 729.501 374.292C728.474 374.236 725.793 374.208 721.46 374.208H714.876C710.293 374.208 707.682 374.236 707.043 374.292C706.043 374.375 704.974 376.514 703.835 380.708C702.724 384.903 701.862 387 701.251 387H691.876C691.321 387 691.043 386.806 691.043 386.417C691.043 386.139 691.237 385.514 691.626 384.542L701.835 356.625C702.696 354.375 705.307 347.889 709.668 337.167C710.446 335.389 711.501 332.708 712.835 329.125C713.168 328.069 713.529 327.542 713.918 327.542C714.446 327.542 715.224 327.611 716.251 327.75C717.279 327.889 718.057 327.958 718.585 327.958C719.085 327.958 719.835 327.889 720.835 327.75C721.862 327.583 722.612 327.5 723.085 327.5C723.335 327.5 723.682 328.014 724.126 329.042C724.793 330.597 728.085 338.972 734.001 354.167C742.362 375.528 746.543 386.306 746.543 386.5ZM727.126 363.5C727.126 362.694 725.876 359.083 723.376 352.667C720.96 346.444 719.251 342.361 718.251 340.417C712.501 355.083 709.626 362.764 709.626 363.458C709.626 364.403 710.682 364.958 712.793 365.125C712.904 365.153 714.265 365.167 716.876 365.167H721.168C725.14 365.167 727.126 364.611 727.126 363.5Z" fill="#FFFFFD"/>
<defs>
<linearGradient id="paint0_linear_2917_18445" x1="720" y1="112" x2="744.713" y2="292.031" gradientUnits="userSpaceOnUse">
<stop stop-color="#6A1CE8"/>
<stop offset="1" stop-color="#6A1CE8" stop-opacity="0.36"/>
</linearGradient>
</defs>
</svg>
